<?xml version="1.0" encoding="UTF-8" standalone="no"?>
<!-- Created with Inkscape (http://www.inkscape.org/) -->

<svg
   xmlns:dc="http://purl.org/dc/elements/1.1/"
   xmlns:cc="http://creativecommons.org/ns#"
   xmlns:rdf="http://www.w3.org/1999/02/22-rdf-syntax-ns#"
   xmlns:svg="http://www.w3.org/2000/svg"
   xmlns="http://www.w3.org/2000/svg"
   xmlns:sodipodi="http://sodipodi.sourceforge.net/DTD/sodipodi-0.dtd"
   xmlns:inkscape="http://www.inkscape.org/namespaces/inkscape"
   width="80mm"
   height="40mm"
   viewBox="0 0 80 40"
   version="1.1"
   id="svg532"
   inkscape:version="0.92.4 (5da689c313, 2019-01-14)"
   sodipodi:docname="assinatura-texto-branco.svg">
  <defs
     id="defs526">
    <clipPath
       clipPathUnits="userSpaceOnUse"
       id="clipPath172">
      <path
         d="M 0,595.28 H 841.89 V 0 H 0 Z"
         id="path170"
         inkscape:connector-curvature="0" />
    </clipPath>
    <clipPath
       clipPathUnits="userSpaceOnUse"
       id="clipPath220">
      <path
         d="M 0,595.28 H 841.89 V 0 H 0 Z"
         id="path218"
         inkscape:connector-curvature="0" />
    </clipPath>
  </defs>
  <sodipodi:namedview
     id="base"
     pagecolor="#ffffff"
     bordercolor="#666666"
     borderopacity="1.0"
     inkscape:pageopacity="0.0"
     inkscape:pageshadow="2"
     inkscape:zoom="3.959798"
     inkscape:cx="174.27041"
     inkscape:cy="101.48602"
     inkscape:document-units="mm"
     inkscape:current-layer="layer1"
     showgrid="false"
     inkscape:window-width="1920"
     inkscape:window-height="1027"
     inkscape:window-x="-8"
     inkscape:window-y="-8"
     inkscape:window-maximized="1" />
  <metadata
     id="metadata529">
    <rdf:RDF>
      <cc:Work
         rdf:about="">
        <dc:format>image/svg+xml</dc:format>
        <dc:type
           rdf:resource="http://purl.org/dc/dcmitype/StillImage" />
        <dc:title></dc:title>
      </cc:Work>
    </rdf:RDF>
  </metadata>
  <g
     inkscape:label="Camada 1"
     inkscape:groupmode="layer"
     id="layer1"
     transform="translate(0,-257)">
    <path
       inkscape:connector-curvature="0"
       id="path154"
       style="fill:#33b540;fill-opacity:1;fill-rule:nonzero;stroke:none;stroke-width:0.14796054"
       d="m 76.407272,292.4393 h -33.08138 v -32.49436 h 33.08138 z" />
    <path
       inkscape:connector-curvature="0"
       id="path156"
       style="fill:#33b540;fill-opacity:1;fill-rule:nonzero;stroke:#ffffff;stroke-width:0.35277775;stroke-linecap:butt;stroke-linejoin:miter;stroke-miterlimit:10;stroke-dasharray:none;stroke-opacity:1"
       d="m 76.407272,292.4393 h -33.08138 v -32.49436 h 33.08138 z" />
    <path
       d="m 57.859272,268.40844 v -8.255 h -14.23705 v 8.65187 c 4.81859,2.43205 9.53417,1.23931 14.23705,-0.39687"
       style="fill:#2056ae;fill-opacity:1;fill-rule:nonzero;stroke:none;stroke-width:0.35277775"
       id="path160"
       inkscape:connector-curvature="0" />
    <g
       aria-label="GOVERNO DO ESTADO"
       style="font-variant:normal;font-weight:900;font-stretch:normal;font-size:2.16362143px;font-family:'Bw Mitga Black';-inkscape-font-specification:BwMitga-Black;writing-mode:lr-tb;fill:#ffffff;fill-opacity:1;fill-rule:nonzero;stroke:none;stroke-width:0.35277778"
       id="text164">
      <path
         d="m 44.756389,295.03038 v -0.97363 h -0.688032 v 0.34834 h 0.263962 v 0.24882 c -0.0714,0.0216 -0.147126,0.0346 -0.222853,0.0346 -0.268289,0 -0.42407,-0.1839 -0.42407,-0.46301 0,-0.29642 0.190399,-0.48032 0.547396,-0.48032 0.110345,0 0.307235,0.0281 0.408925,0.0779 v -0.32455 c -0.136308,-0.0627 -0.359161,-0.10385 -0.545233,-0.10385 -0.514942,0 -0.848139,0.32454 -0.848139,0.83299 0,0.49764 0.318052,0.81136 0.755103,0.81136 0.155781,0 0.285598,-0.0325 0.40027,-0.0844 0.09087,0.0454 0.205544,0.0757 0.352671,0.0757 z"
         style="stroke-width:0.35277778"
         id="path251" />
      <path
         d="m 46.260105,295.03903 c 0.521433,0 0.871939,-0.32887 0.871939,-0.82217 0,-0.49331 -0.350506,-0.82218 -0.871939,-0.82218 -0.52576,0 -0.876267,0.32887 -0.876267,0.82218 0,0.4933 0.350507,0.82217 0.876267,0.82217 z m 0,-0.35051 c -0.263962,0 -0.439215,-0.18823 -0.439215,-0.47166 0,-0.28344 0.175253,-0.47167 0.439215,-0.47167 0.259634,0 0.434888,0.18823 0.434888,0.47167 0,0.28343 -0.175254,0.47166 -0.434888,0.47166 z"
         style="stroke-width:0.35277778"
         id="path253" />
      <path
         d="m 49.258885,293.41632 h -0.452196 c -0.125491,0.27694 -0.259635,0.57119 -0.398107,0.85895 -0.138472,-0.28776 -0.272616,-0.58201 -0.398106,-0.85895 h -0.452197 c 0.261798,0.5409 0.566869,1.14671 0.839485,1.62271 h 0.02164 c 0.270453,-0.476 0.577687,-1.08181 0.839485,-1.62271 z"
         style="stroke-width:0.35277778"
         id="path255" />
      <path
         d="m 51.01791,294.66689 h -0.761594 v -0.28344 h 0.666395 v -0.34834 h -0.666395 v -0.26829 h 0.746449 v -0.3505 h -1.170519 v 1.60108 h 1.185664 z"
         style="stroke-width:0.35277778"
         id="path257" />
      <path
         d="m 52.831025,294.4224 c 0.127654,-0.093 0.216362,-0.24449 0.216362,-0.44787 0,-0.33536 -0.25098,-0.55821 -0.623123,-0.55821 h -0.696686 v 1.60108 h 0.42407 v -1.25058 h 0.229344 c 0.138472,0 0.22718,0.0995 0.22718,0.25315 0,0.15361 -0.08005,0.2553 -0.22718,0.2553 -0.05842,0 -0.112508,-0.004 -0.170926,-0.0216 0.205544,0.25314 0.404597,0.53874 0.514942,0.76376 h 0.486814 c -0.118999,-0.22069 -0.272616,-0.44571 -0.380797,-0.595 z"
         style="stroke-width:0.35277778"
         id="path259" />
      <path
         d="m 55.429532,295.03903 v -1.62271 h -0.424069 l 0.0065,0.85246 -0.222853,-0.18607 c -0.376471,-0.31805 -0.813522,-0.68803 -0.956321,-0.68803 v 1.62272 h 0.42407 l -0.0065,-0.85031 0.235835,0.19689 c 0.374306,0.31373 0.800539,0.67505 0.943338,0.67505 z"
         style="stroke-width:0.35277778"
         id="path261" />
      <path
         d="m 56.991668,295.03903 c 0.521433,0 0.87194,-0.32887 0.87194,-0.82217 0,-0.49331 -0.350507,-0.82218 -0.87194,-0.82218 -0.52576,0 -0.876266,0.32887 -0.876266,0.82218 0,0.4933 0.350506,0.82217 0.876266,0.82217 z m 0,-0.35051 c -0.263961,0 -0.439215,-0.18823 -0.439215,-0.47166 0,-0.28344 0.175254,-0.47167 0.439215,-0.47167 0.259635,0 0.434888,0.18823 0.434888,0.47167 0,0.28343 -0.175253,0.47166 -0.434888,0.47166 z"
         style="stroke-width:0.35277778"
         id="path263" />
      <path
         d="m 60.198157,293.41632 h -0.701013 v 1.60108 h 0.701013 c 0.480324,0 0.798376,-0.32022 0.798376,-0.80271 0,-0.47816 -0.318052,-0.79837 -0.798376,-0.79837 z m 0.0087,1.25057 h -0.285598 v -0.90007 h 0.285598 c 0.212034,0 0.35267,0.17958 0.35267,0.44787 0,0.27262 -0.140636,0.4522 -0.35267,0.4522 z"
         style="stroke-width:0.35277778"
         id="path265" />
      <path
         d="m 62.472122,295.03903 c 0.521433,0 0.871939,-0.32887 0.871939,-0.82217 0,-0.49331 -0.350506,-0.82218 -0.871939,-0.82218 -0.52576,0 -0.876267,0.32887 -0.876267,0.82218 0,0.4933 0.350507,0.82217 0.876267,0.82217 z m 0,-0.35051 c -0.263962,0 -0.439215,-0.18823 -0.439215,-0.47166 0,-0.28344 0.175253,-0.47167 0.439215,-0.47167 0.259634,0 0.434888,0.18823 0.434888,0.47167 0,0.28343 -0.175254,0.47166 -0.434888,0.47166 z"
         style="stroke-width:0.35277778"
         id="path267" />
      <path
         d="m 66.163262,294.66689 h -0.761595 v -0.28344 h 0.666395 v -0.34834 h -0.666395 v -0.26829 h 0.746449 v -0.3505 h -1.170519 v 1.60108 h 1.185665 z"
         style="stroke-width:0.35277778"
         id="path269" />
      <path
         d="m 67.62587,294.57818 c 0,0.0757 -0.08438,0.12116 -0.307234,0.12116 -0.108181,0 -0.292089,-0.026 -0.454361,-0.0952 v 0.31806 c 0.151454,0.0779 0.387288,0.11683 0.564705,0.11683 0.389452,0 0.623123,-0.19472 0.623123,-0.5171 0,-0.31589 -0.214198,-0.44787 -0.495469,-0.51711 l -0.06058,-0.0152 c -0.155781,-0.0389 -0.272617,-0.0627 -0.272617,-0.14496 0,-0.0692 0.08871,-0.11034 0.305071,-0.11034 0.09736,0 0.253144,0.0216 0.419742,0.0757 v -0.31805 c -0.136308,-0.0584 -0.335361,-0.0974 -0.517105,-0.0974 -0.398106,0 -0.636105,0.18823 -0.636105,0.5236 0,0.3267 0.192563,0.40892 0.508451,0.49114 l 0.06707,0.0173 c 0.138472,0.0346 0.255308,0.0671 0.255308,0.15145 z"
         style="stroke-width:0.35277778"
         id="path271" />
      <path
         d="m 69.923848,293.76682 v -0.3505 H 68.56942 v 0.3505 h 0.465179 v 1.25058 h 0.42407 v -1.25058 z"
         style="stroke-width:0.35277778"
         id="path273" />
      <path
         d="m 71.460021,295.0174 h 0.452197 c -0.268289,-0.54091 -0.584178,-1.14672 -0.861121,-1.62272 h -0.02164 c -0.279108,0.476 -0.592833,1.08181 -0.861122,1.62272 h 0.452197 c 0.03029,-0.0671 0.06058,-0.13415 0.09304,-0.20339 h 0.653413 c 0.03245,0.0692 0.06275,0.13631 0.09304,0.20339 z m -0.235835,-0.55173 h -0.367815 c 0.05842,-0.119 0.123326,-0.24016 0.183908,-0.35916 0.06058,0.119 0.12549,0.24016 0.183907,0.35916 z"
         style="stroke-width:0.35277778"
         id="path275" />
      <path
         d="m 73.180098,293.41632 h -0.701013 v 1.60108 h 0.701013 c 0.480324,0 0.798377,-0.32022 0.798377,-0.80271 0,-0.47816 -0.318053,-0.79837 -0.798377,-0.79837 z m 0.0087,1.25057 h -0.285598 v -0.90007 h 0.285598 c 0.212035,0 0.35267,0.17958 0.35267,0.44787 0,0.27262 -0.140635,0.4522 -0.35267,0.4522 z"
         style="stroke-width:0.35277778"
         id="path277" />
      <path
         d="m 75.454067,295.03903 c 0.521433,0 0.871939,-0.32887 0.871939,-0.82217 0,-0.49331 -0.350506,-0.82218 -0.871939,-0.82218 -0.52576,0 -0.876267,0.32887 -0.876267,0.82218 0,0.4933 0.350507,0.82217 0.876267,0.82217 z m 0,-0.35051 c -0.263962,0 -0.439215,-0.18823 -0.439215,-0.47166 0,-0.28344 0.175253,-0.47167 0.439215,-0.47167 0.259634,0 0.434888,0.18823 0.434888,0.47167 0,0.28343 -0.175254,0.47166 -0.434888,0.47166 z"
         style="stroke-width:0.35277778"
         id="path279" />
    </g>
    <path
       inkscape:connector-curvature="0"
       id="path176"
       style="fill:#fddd04;fill-opacity:1;fill-rule:nonzero;stroke:none;stroke-width:0.35277778"
       d="m 43.490636,273.72762 c 11.094861,5.6575 21.648561,-7.89905 32.743422,-2.24614 v 2.4183 c -11.094861,-5.65327 -21.648561,7.90328 -32.743422,2.24578 z" />
    <path
       inkscape:connector-curvature="0"
       id="path180"
       style="fill:#ffffff;fill-opacity:1;fill-rule:nonzero;stroke:none;stroke-width:0.35277778"
       d="m 56.190989,268.04649 c -0.535869,-0.18697 -0.803628,-0.2861 -1.339144,-0.49989 -0.53587,0.42404 -0.803981,0.62901 -1.339498,1.02165 0.204611,-0.54434 0.306917,-0.81739 0.511528,-1.36666 -0.535869,-0.23284 -0.803628,-0.35701 -1.339497,-0.62442 0.662164,-0.0639 0.993422,-0.11077 1.655586,-0.22613 0.204611,-0.5521 0.306917,-0.82903 0.511881,-1.38536 0.204611,0.4759 0.306916,0.71297 0.511527,1.18463 0.662164,-0.14323 0.99307,-0.22613 1.655586,-0.40781 -0.535869,0.46602 -0.80398,0.69356 -1.339497,1.13524 0.204611,0.46919 0.306917,0.70308 0.511528,1.16875" />
    <path
       inkscape:connector-curvature="0"
       id="path184"
       style="fill:#ffffff;fill-opacity:1;fill-rule:nonzero;stroke:none;stroke-width:0.35277778"
       d="m 56.190989,263.96097 c -0.535869,-0.18662 -0.803628,-0.2861 -1.339144,-0.49989 -0.53587,0.42404 -0.803981,0.62936 -1.339498,1.02165 0.204611,-0.54398 0.306917,-0.81739 0.511528,-1.36666 -0.535869,-0.23284 -0.803628,-0.35701 -1.339497,-0.62407 0.662164,-0.0642 0.993422,-0.11077 1.655586,-0.22648 0.204611,-0.5521 0.306917,-0.82903 0.511881,-1.38536 0.204611,0.4759 0.306563,0.71297 0.511527,1.18463 0.662164,-0.14323 0.99307,-0.22613 1.655586,-0.40781 -0.535869,0.46602 -0.80398,0.69391 -1.339497,1.13524 0.204611,0.46954 0.306917,0.70308 0.511528,1.16875" />
    <path
       inkscape:connector-curvature="0"
       id="path188"
       style="fill:#ffffff;fill-opacity:1;fill-rule:nonzero;stroke:none;stroke-width:0.35277778"
       d="m 47.645653,264.3275 c -0.535869,-0.43462 -0.803628,-0.66499 -1.339144,-1.15499 -0.53587,0.14816 -0.803981,0.20849 -1.339498,0.29739 0.204611,-0.42827 0.306917,-0.64453 0.511528,-1.08197 -0.535869,-0.52564 -0.803628,-0.80328 -1.339497,-1.391 0.662164,0.33231 0.993422,0.47307 1.655586,0.71155 0.204611,-0.44239 0.307269,-0.66605 0.511881,-1.1169 0.204611,0.58138 0.306916,0.86995 0.511527,1.44322 0.662164,0.1845 0.99307,0.25506 1.655586,0.35877 -0.535869,0.23531 -0.803627,0.34043 -1.339497,0.52317 0.204611,0.56833 0.306917,0.85055 0.511528,1.41076" />
    <path
       inkscape:connector-curvature="0"
       id="path192"
       style="fill:#ffffff;fill-opacity:1;fill-rule:nonzero;stroke:none;stroke-width:0.35277778"
       d="m 47.645653,268.41302 c -0.535869,-0.43497 -0.803628,-0.66534 -1.339144,-1.15499 -0.53587,0.14816 -0.803981,0.20849 -1.339498,0.29739 0.204611,-0.42827 0.306917,-0.64453 0.511528,-1.08197 -0.535869,-0.52564 -0.803628,-0.80328 -1.339497,-1.39136 0.662164,0.33232 0.993422,0.47343 1.655586,0.71191 0.204611,-0.44239 0.307269,-0.66605 0.511881,-1.1169 0.204611,0.58138 0.306916,0.86995 0.511527,1.44322 0.662164,0.1845 0.993423,0.25506 1.655586,0.35877 -0.535869,0.23495 -0.803627,0.34043 -1.339497,0.52282 0.204611,0.56832 0.306917,0.85055 0.511528,1.41111" />
    <path
       inkscape:connector-curvature="0"
       id="path196"
       style="fill:#ffffff;fill-opacity:1;fill-rule:nonzero;stroke:none;stroke-width:0.35277778"
       d="m 51.583358,266.31999 c -0.401814,-0.22401 -0.602544,-0.34149 -1.004711,-0.58843 -0.401461,0.23107 -0.602545,0.34078 -1.004358,0.5468 0.153458,-0.37465 0.230363,-0.56268 0.383822,-0.94086 -0.401814,-0.26282 -0.602897,-0.4004 -1.004711,-0.68932 0.496711,0.0617 0.745066,0.0815 1.241777,0.10301 0.153459,-0.3803 0.230364,-0.5715 0.38347,-0.95568 0.153811,0.39017 0.230364,0.58456 0.383822,0.9712 0.496711,-10e-4 0.745067,-0.0116 1.241778,-0.0473 -0.401814,0.26846 -0.602897,0.39723 -1.004358,0.64311 0.153458,0.38453 0.230011,0.57609 0.383469,0.95744" />
    <path
       inkscape:connector-curvature="0"
       id="path200"
       style="fill:#fddd04;fill-opacity:1;fill-rule:nonzero;stroke:none;stroke-width:0.35277778"
       d="m 43.490636,268.77674 c 11.094861,5.6575 21.648561,-7.89905 32.743422,-2.24578 v 2.41794 c -11.094861,-5.65292 -21.648561,7.90328 -32.743422,2.24578 z" />
    <path
       inkscape:connector-curvature="0"
       id="path204"
       style="fill:#fddd04;fill-opacity:1;fill-rule:nonzero;stroke:none;stroke-width:0.35277778"
       d="m 57.78378,263.43427 v 2.41794 c 6.059664,-2.20804 12.207169,-5.02215 18.450277,-1.87572 v -2.41794 c -6.243108,-3.14678 -12.390613,-0.33267 -18.450277,1.87572" />
    <g
       aria-label="Somos todos"
       style="font-variant:normal;font-weight:normal;font-stretch:normal;font-size:4.00152302px;font-family:'Bw Mitga';-inkscape-font-specification:BwMitga-Regular;writing-mode:lr-tb;fill:#ffffff;fill-opacity:1;fill-rule:nonzero;stroke:none;stroke-width:0.35277778"
       id="text208">
      <path
         d="m 48.863751,281.13731 c 0,0.32413 -0.260099,0.5202 -0.744283,0.5202 -0.244093,0 -0.540206,-0.06 -0.828315,-0.19607 v 0.2761 c 0.23609,0.14005 0.628239,0.21208 0.928353,0.21208 0.628239,0 1.004382,-0.32012 1.004382,-0.85232 0,-0.57222 -0.380144,-0.7763 -0.884336,-0.89234 l -0.172066,-0.04 c -0.336128,-0.08 -0.616234,-0.16006 -0.616234,-0.47618 0,-0.31212 0.248094,-0.48818 0.720274,-0.48818 0.240091,0 0.528201,0.06 0.816311,0.16406 v -0.27611 c -0.300115,-0.12404 -0.620236,-0.18007 -0.89234,-0.18007 -0.636242,0 -1.012385,0.29612 -1.012385,0.84032 0,0.5162 0.348132,0.66826 0.804306,0.7723 l 0.172065,0.04 c 0.412157,0.096 0.704268,0.2401 0.704268,0.57622 z"
         style="stroke-width:0.35277778"
         id="path219" />
      <path
         d="m 50.749267,281.94962 c 0.65625,0 1.096418,-0.44017 1.096418,-1.10442 0,-0.66025 -0.440168,-1.10042 -1.096418,-1.10042 -0.656249,0 -1.096417,0.44017 -1.096417,1.10042 0,0.66425 0.440168,1.10442 1.096417,1.10442 z m 0,-0.2761 c -0.444169,0 -0.73628,-0.33213 -0.73628,-0.82832 0,-0.49219 0.292111,-0.82431 0.73628,-0.82431 0.440168,0 0.736281,0.33212 0.736281,0.82431 0,0.49619 -0.296113,0.82832 -0.736281,0.82832 z"
         style="stroke-width:0.35277778"
         id="path221" />
      <path
         d="m 54.738786,279.74478 c -0.328125,0 -0.600228,0.068 -0.796303,0.20008 -0.128049,-0.13205 -0.324123,-0.20008 -0.568216,-0.20008 -0.228087,0 -0.464177,0.04 -0.664253,0.10804 -0.08403,-0.052 -0.204078,-0.084 -0.324123,-0.084 v 2.14082 h 0.344131 v -1.78868 c 0.168064,-0.072 0.348132,-0.10004 0.528201,-0.10004 0.340129,0 0.536204,0.19607 0.536204,0.55221 v 1.33651 h 0.344131 v -1.43255 c 0,-0.12004 -0.01601,-0.22809 -0.05602,-0.32012 0.176067,-0.096 0.376143,-0.13605 0.57622,-0.13605 0.340129,0 0.540205,0.19607 0.540205,0.55221 v 1.33651 h 0.344131 v -1.36452 c 0,-0.5282 -0.304116,-0.80031 -0.804306,-0.80031 z"
         style="stroke-width:0.35277778"
         id="path223" />
      <path
         d="m 57.167713,281.94962 c 0.65625,0 1.096417,-0.44017 1.096417,-1.10442 0,-0.66025 -0.440167,-1.10042 -1.096417,-1.10042 -0.65625,0 -1.096417,0.44017 -1.096417,1.10042 0,0.66425 0.440167,1.10442 1.096417,1.10442 z m 0,-0.2761 c -0.444169,0 -0.73628,-0.33213 -0.73628,-0.82832 0,-0.49219 0.292111,-0.82431 0.73628,-0.82431 0.440168,0 0.73628,0.33212 0.73628,0.82431 0,0.49619 -0.296112,0.82832 -0.73628,0.82832 z"
         style="stroke-width:0.35277778"
         id="path225" />
      <path
         d="m 59.775905,281.34539 c 0,0.22009 -0.152058,0.34013 -0.444169,0.34013 -0.176067,0 -0.392149,-0.044 -0.600229,-0.13605 v 0.24809 c 0.176067,0.10004 0.464177,0.15206 0.672256,0.15206 0.456174,0 0.732279,-0.23609 0.732279,-0.64024 0,-0.38015 -0.240091,-0.54821 -0.572218,-0.62424 l -0.188071,-0.044 c -0.224086,-0.052 -0.360137,-0.14005 -0.360137,-0.31612 0,-0.19607 0.152057,-0.31612 0.444169,-0.31612 0.160061,0 0.36814,0.04 0.572217,0.11605 v -0.2521 c -0.200076,-0.084 -0.432164,-0.12805 -0.640243,-0.12805 -0.456174,0 -0.728277,0.23209 -0.728277,0.63224 0,0.36014 0.208079,0.49619 0.548208,0.57622 l 0.188072,0.044 c 0.232088,0.056 0.376143,0.16806 0.376143,0.34813 z"
         style="stroke-width:0.35277778"
         id="path227" />
      <path
         d="m 62.596976,281.67352 c -0.23609,0 -0.392149,-0.17207 -0.392149,-0.43217 v -1.20446 h 0.676257 v -0.25209 h -0.676257 v -0.62024 l -0.344131,0.096 v 0.5242 h -0.308117 v 0.25209 h 0.308117 v 1.26048 c 0,0.39215 0.252096,0.65225 0.632241,0.65225 0.136051,0 0.276105,-0.012 0.408155,-0.048 v -0.25609 c -0.100038,0.02 -0.200076,0.028 -0.304116,0.028 z"
         style="stroke-width:0.35277778"
         id="path229" />
      <path
         d="m 64.223598,281.94962 c 0.65625,0 1.096418,-0.44017 1.096418,-1.10442 0,-0.66025 -0.440168,-1.10042 -1.096418,-1.10042 -0.656249,0 -1.096417,0.44017 -1.096417,1.10042 0,0.66425 0.440168,1.10442 1.096417,1.10442 z m 0,-0.2761 c -0.444169,0 -0.73628,-0.33213 -0.73628,-0.82832 0,-0.49219 0.292111,-0.82431 0.73628,-0.82431 0.440168,0 0.736281,0.33212 0.736281,0.82431 0,0.49619 -0.296113,0.82832 -0.736281,0.82832 z"
         style="stroke-width:0.35277778"
         id="path231" />
      <path
         d="m 67.820564,281.92961 v -3.1692 l -0.344131,0.096 v 1.10443 c -0.180069,-0.13606 -0.432165,-0.21609 -0.696265,-0.21609 -0.628239,0 -1.044398,0.44817 -1.044398,1.11643 0,0.65225 0.448171,1.08841 1.116425,1.08841 0.228087,0 0.464177,-0.04 0.644245,-0.10804 0.08803,0.056 0.200076,0.088 0.324124,0.088 z m -1.724657,-1.07641 c 0,-0.50019 0.304116,-0.83231 0.768293,-0.83231 0.216082,0 0.440167,0.084 0.612233,0.22008 v 1.33251 c -0.172066,0.064 -0.372142,0.10004 -0.532203,0.10004 -0.516196,0 -0.848323,-0.32813 -0.848323,-0.82032 z"
         style="stroke-width:0.35277778"
         id="path233" />
      <path
         d="m 69.461193,281.94962 c 0.65625,0 1.096417,-0.44017 1.096417,-1.10442 0,-0.66025 -0.440167,-1.10042 -1.096417,-1.10042 -0.65625,0 -1.096417,0.44017 -1.096417,1.10042 0,0.66425 0.440167,1.10442 1.096417,1.10442 z m 0,-0.2761 c -0.444169,0 -0.73628,-0.33213 -0.73628,-0.82832 0,-0.49219 0.292111,-0.82431 0.73628,-0.82431 0.440167,0 0.73628,0.33212 0.73628,0.82431 0,0.49619 -0.296113,0.82832 -0.73628,0.82832 z"
         style="stroke-width:0.35277778"
         id="path235" />
      <path
         d="m 72.069785,281.34539 c 0,0.22009 -0.152057,0.34013 -0.444169,0.34013 -0.176067,0 -0.392149,-0.044 -0.600228,-0.13605 v 0.24809 c 0.176067,0.10004 0.464177,0.15206 0.672256,0.15206 0.456173,0 0.732279,-0.23609 0.732279,-0.64024 0,-0.38015 -0.240092,-0.54821 -0.572218,-0.62424 l -0.188072,-0.044 c -0.224085,-0.052 -0.360137,-0.14005 -0.360137,-0.31612 0,-0.19607 0.152058,-0.31612 0.444169,-0.31612 0.160061,0 0.36814,0.04 0.572218,0.11605 v -0.2521 c -0.200076,-0.084 -0.432165,-0.12805 -0.640244,-0.12805 -0.456173,0 -0.728277,0.23209 -0.728277,0.63224 0,0.36014 0.208079,0.49619 0.548209,0.57622 l 0.188071,0.044 c 0.232089,0.056 0.376143,0.16806 0.376143,0.34813 z"
         style="stroke-width:0.35277778"
         id="path237" />
    </g>
    <g
       aria-label="GOIAS"
       style="font-variant:normal;font-weight:900;font-stretch:normal;font-size:7.60557079px;font-family:'Bw Mitga Black';-inkscape-font-specification:BwMitga-Black;writing-mode:lr-tb;fill:#ffffff;fill-opacity:1;fill-rule:nonzero;stroke:none;stroke-width:0.35277778"
       id="text212">
      <path
         d="m 52.531095,288.28935 v -3.42251 h -2.418571 v 1.2245 h 0.92788 v 0.87464 c -0.250984,0.0761 -0.517179,0.12169 -0.783374,0.12169 -0.943091,0 -1.490692,-0.64648 -1.490692,-1.6276 0,-1.04196 0.66929,-1.68843 1.924209,-1.68843 0.387884,0 1.079991,0.0989 1.437453,0.2738 v -1.14084 c -0.479151,-0.22056 -1.262525,-0.36506 -1.916604,-0.36506 -1.810125,0 -2.981383,1.14083 -2.981383,2.92814 0,1.74928 1.118019,2.85209 2.654344,2.85209 0.547601,0 1.003935,-0.11408 1.40703,-0.29662 0.319434,0.15972 0.72253,0.2662 1.239708,0.2662 z"
         style="stroke-width:0.35277778"
         id="path240" />
      <path
         d="m 56.006841,288.31977 c 1.832943,0 3.065045,-1.15605 3.065045,-2.89012 0,-1.73407 -1.232102,-2.89011 -3.065045,-2.89011 -1.848154,0 -3.080256,1.15604 -3.080256,2.89011 0,1.73407 1.232102,2.89012 3.080256,2.89012 z m 0,-1.2321 c -0.92788,0 -1.543931,-0.66169 -1.543931,-1.65802 0,-0.99633 0.616051,-1.65801 1.543931,-1.65801 0.912669,0 1.52872,0.66168 1.52872,1.65801 0,0.99633 -0.616051,1.65802 -1.52872,1.65802 z"
         style="stroke-width:0.35277778"
         id="path242" />
      <path
         d="m 61.102576,288.24371 v -5.62812 h -1.490692 v 5.62812 z"
         style="stroke-width:0.35277778"
         id="path244" />
      <path
         d="m 66.138224,288.24371 h 1.589564 c -0.943091,-1.90139 -2.053504,-4.03095 -3.027017,-5.70417 h -0.07606 c -0.981119,1.67322 -2.083926,3.80278 -3.027017,5.70417 h 1.589564 c 0.106478,-0.23577 0.212956,-0.47154 0.32704,-0.71492 h 2.296882 c 0.114084,0.24338 0.220562,0.47915 0.32704,0.71492 z m -0.829008,-1.93942 h -1.292947 c 0.205351,-0.4183 0.433518,-0.84422 0.646474,-1.26252 0.212956,0.4183 0.441123,0.84422 0.646473,1.26252 z"
         style="stroke-width:0.35277778"
         id="path246" />
      <path
         d="m 70.834661,286.69978 c 0,0.2662 -0.296618,0.42591 -1.079991,0.42591 -0.380279,0 -1.026752,-0.0913 -1.59717,-0.33464 v 1.11802 c 0.53239,0.2738 1.361397,0.4107 1.985054,0.4107 1.369002,0 2.190404,-0.6845 2.190404,-1.81773 0,-1.11042 -0.752951,-1.57436 -1.741676,-1.81773 l -0.212956,-0.0532 c -0.547601,-0.1369 -0.958302,-0.22056 -0.958302,-0.50958 0,-0.24337 0.311829,-0.38788 1.072386,-0.38788 0.342251,0 0.889852,0.0761 1.475481,0.26619 v -1.11801 c -0.479151,-0.20535 -1.178864,-0.34225 -1.817732,-0.34225 -1.399425,0 -2.236038,0.66168 -2.236038,1.84054 0,1.14844 0.676896,1.43746 1.78731,1.72647 l 0.235772,0.0608 c 0.486757,0.12169 0.897458,0.23578 0.897458,0.53239 z"
         style="stroke-width:0.35277778"
         id="path248" />
    </g>
    <path
       inkscape:connector-curvature="0"
       id="path224"
       style="fill:#ffffff;fill-opacity:1;fill-rule:nonzero;stroke:none;stroke-width:0.35277778"
       d="m 65.2856,283.25509 0.470253,-0.768 h -0.88512 z" />
    <path
       d="m 35.797259,259.65143 h -0.283986 v 35.36598 h 0.283986 z"
       style="fill:#ffffff;fill-opacity:1;fill-rule:nonzero;stroke:none;stroke-width:0.35277778"
       id="path226"
       inkscape:connector-curvature="0" />
    <g
       aria-label="Goiás
Previdência"
       style="font-variant:normal;font-weight:900;font-stretch:normal;font-size:4.09984207px;font-family:'Bw Mitga Black';-inkscape-font-specification:BwMitga-Black;writing-mode:lr-tb;fill:#ffffff;fill-opacity:1;fill-rule:nonzero;stroke:none;stroke-width:0.35277775"
       id="text244-2">
      <path
         d="m 19.325151,275.32028 v -1.84493 h -1.30375 v 0.66008 h 0.500181 v 0.47148 c -0.135295,0.041 -0.27879,0.0656 -0.422284,0.0656 -0.508381,0 -0.803569,-0.34849 -0.803569,-0.87737 0,-0.56168 0.360786,-0.91016 1.03726,-0.91016 0.209092,0 0.582177,0.0533 0.77487,0.14759 v -0.61497 c -0.25829,-0.1189 -0.680574,-0.1968 -1.03316,-0.1968 -0.975763,0 -1.607138,0.61498 -1.607138,1.57844 0,0.94297 0.602677,1.53744 1.430845,1.53744 0.295188,0 0.541179,-0.0615 0.75847,-0.15989 0.172194,0.0861 0.389485,0.14349 0.668275,0.14349 z"
         style="text-align:end;text-anchor:end;stroke-width:0.35277775"
         id="path282" />
      <path
         d="m 20.872393,275.33668 c 0.742071,0 1.242252,-0.46738 1.242252,-1.16435 0,-0.70107 -0.500181,-1.16436 -1.242252,-1.16436 -0.750271,0 -1.250452,0.46329 -1.250452,1.16436 0,0.69697 0.500181,1.16435 1.250452,1.16435 z m -0.0041,-0.60677 c -0.26649,0 -0.442783,-0.22549 -0.442783,-0.55758 0,-0.33619 0.176293,-0.55758 0.442783,-0.55758 0.26239,0 0.442783,0.22139 0.442783,0.55758 0,0.33209 -0.180393,0.55758 -0.442783,0.55758 z"
         style="text-align:end;text-anchor:end;stroke-width:0.35277775"
         id="path284" />
      <path
         d="m 22.888811,272.79888 c 0.25829,0 0.446882,-0.18449 0.446882,-0.44278 0,-0.25829 -0.188592,-0.44278 -0.446882,-0.44278 -0.25829,0 -0.442783,0.18449 -0.442783,0.44278 0,0.25829 0.184493,0.44278 0.442783,0.44278 z m 0.385385,0.25009 h -0.77897 v 2.24671 h 0.77897 z"
         style="text-align:end;text-anchor:end;stroke-width:0.35277775"
         id="path286" />
      <path
         d="m 24.936874,272.79478 0.729772,-0.62317 -0.692874,-0.1968 -0.549379,0.67648 z m 0.844567,2.5255 v -1.46774 c 0,-0.53298 -0.377185,-0.84457 -1.016761,-0.84457 -0.352586,0 -0.701073,0.0533 -0.938864,0.1394 v 0.56578 c 0.250091,-0.0615 0.549379,-0.0984 0.77897,-0.0984 0.250091,0 0.397685,0.1107 0.397685,0.30339 v 0.0533 c -0.151694,-0.0574 -0.303388,-0.082 -0.434583,-0.082 -0.590377,0 -0.918365,0.25829 -0.918365,0.72157 0,0.46738 0.286989,0.72567 0.79537,0.72567 0.24599,0 0.487881,-0.0574 0.688773,-0.15989 0.184493,0.0902 0.414084,0.14349 0.647775,0.14349 z m -1.328349,-0.72567 c 0,-0.13939 0.110696,-0.20909 0.315688,-0.20909 0.0697,0 0.147594,0.0164 0.233691,0.0492 v 0.30749 c -0.0779,0.0287 -0.155794,0.0451 -0.233691,0.0451 -0.204992,0 -0.315688,-0.0615 -0.315688,-0.19269 z"
         style="text-align:end;text-anchor:end;stroke-width:0.35277775"
         id="path288" />
      <path
         d="m 27.197808,274.65201 c 0,0.0738 -0.0656,0.0984 -0.26239,0.0984 -0.188592,0 -0.450982,-0.0328 -0.680573,-0.1271 v 0.54118 c 0.225491,0.1189 0.573977,0.17219 0.819968,0.17219 0.573978,0 0.918365,-0.28699 0.918365,-0.77487 0,-0.46738 -0.28289,-0.63957 -0.668275,-0.72567 l -0.110695,-0.0246 c -0.147595,-0.0328 -0.25829,-0.0615 -0.25829,-0.12299 0,-0.0574 0.0738,-0.0984 0.307488,-0.0984 0.106596,0 0.344386,0.0205 0.569878,0.0984 v -0.54528 c -0.163994,-0.0738 -0.459183,-0.1353 -0.733872,-0.1353 -0.586277,0 -0.934764,0.30339 -0.934764,0.81177 0,0.45508 0.25829,0.58218 0.655975,0.66418 l 0.118895,0.0246 c 0.155794,0.0328 0.25829,0.0656 0.25829,0.14349 z"
         style="text-align:end;text-anchor:end;stroke-width:0.35277775"
         id="path290" />
      <path
         d="M 4.8838413,277.41666 H 3.5472928 v 3.03388 h 0.803569 v -0.86097 h 0.4919811 c 0.701073,0 1.1643551,-0.44688 1.1643551,-1.11515 0,-0.63548 -0.4509826,-1.05776 -1.1233567,-1.05776 z m -0.081997,1.50874 H 4.3508618 v -0.84457 h 0.4509827 c 0.2295911,0 0.3730856,0.1681 0.3730856,0.41819 0,0.25829 -0.1434945,0.42638 -0.3730856,0.42638 z"
         style="text-align:end;text-anchor:end;stroke-width:0.35277775"
         id="path292" />
      <path
         d="m 7.7306052,278.8967 v -0.73387 c -0.2582901,0 -0.4796816,0.0533 -0.7256721,0.18039 -0.1885927,-0.10659 -0.4181839,-0.16399 -0.6928733,-0.16399 v 2.27131 h 0.77897 v -1.46364 c 0.1680935,-0.0574 0.3771855,-0.0902 0.6395754,-0.0902 z"
         style="text-align:end;text-anchor:end;stroke-width:0.35277775"
         id="path294" />
      <path
         d="m 10.162067,279.29029 c 0,-0.67648 -0.4509821,-1.12746 -1.1274561,-1.12746 -0.6764739,0 -1.1274566,0.47968 -1.1274566,1.19305 0,0.75847 0.4550825,1.13566 1.1479558,1.13566 0.3402869,0 0.7215722,-0.0615 0.9511629,-0.1517 v -0.56987 c -0.2418902,0.0656 -0.5493784,0.11479 -0.76667,0.11479 -0.3771855,0 -0.491981,-0.0902 -0.5288796,-0.28289 h 1.4226456 c 0.0164,-0.0902 0.0287,-0.20499 0.0287,-0.31158 z m -1.1233562,-0.54528 c 0.1967924,0 0.2951886,0.14349 0.3279873,0.36488 H 8.7066235 c 0.032799,-0.22139 0.131195,-0.36488 0.3320873,-0.36488 z"
         style="text-align:end;text-anchor:end;stroke-width:0.35277775"
         id="path296" />
      <path
         d="m 12.735551,278.20383 h -0.832268 c -0.114795,0.31159 -0.25419,0.60677 -0.438683,0.95936 -0.188592,-0.35259 -0.327987,-0.64777 -0.442783,-0.95936 h -0.832268 c 0.397685,0.81997 0.77897,1.50054 1.254552,2.28771 h 0.0328 c 0.475581,-0.78717 0.860967,-1.46774 1.258651,-2.28771 z"
         style="text-align:end;text-anchor:end;stroke-width:0.35277775"
         id="path298" />
      <path
         d="m 13.351873,277.95374 c 0.25829,0 0.446883,-0.1845 0.446883,-0.44279 0,-0.25829 -0.188593,-0.44278 -0.446883,-0.44278 -0.25829,0 -0.442783,0.18449 -0.442783,0.44278 0,0.25829 0.184493,0.44279 0.442783,0.44279 z m 0.385385,0.25009 h -0.77897 v 2.24671 h 0.77897 z"
         style="text-align:end;text-anchor:end;stroke-width:0.35277775"
         id="path300" />
      <path
         d="m 16.543792,280.47514 v -3.27577 l -0.77897,0.22549 v 0.85276 c -0.159894,-0.0738 -0.332088,-0.11479 -0.504281,-0.11479 -0.680574,0 -1.135656,0.46738 -1.135656,1.16845 0,0.69698 0.430483,1.16026 1.078258,1.16026 0.237791,0 0.483782,-0.0615 0.680574,-0.16809 0.180393,0.0984 0.397685,0.15169 0.660075,0.15169 z m -1.615338,-1.14796 c 0,-0.33618 0.209092,-0.55757 0.52478,-0.55757 0.0943,0 0.204992,0.0328 0.311588,0.0861 v 0.93477 c -0.122996,0.0615 -0.250091,0.0943 -0.360786,0.0943 -0.299289,0 -0.475582,-0.22549 -0.475582,-0.55758 z"
         style="text-align:end;text-anchor:end;stroke-width:0.35277775"
         id="path302" />
      <path
         d="m 17.73518,277.94964 0.323888,-0.31569 0.315688,0.31569 0.51248,-0.1435 -0.549379,-0.67647 h -0.561678 l -0.553479,0.67647 z m 1.451344,1.34065 c 0,-0.67648 -0.450982,-1.12746 -1.127456,-1.12746 -0.676474,0 -1.127457,0.47968 -1.127457,1.19305 0,0.75847 0.455083,1.13566 1.147956,1.13566 0.340287,0 0.721572,-0.0615 0.951163,-0.1517 v -0.56987 c -0.24189,0.0656 -0.549378,0.11479 -0.76667,0.11479 -0.377185,0 -0.491981,-0.0902 -0.52888,-0.28289 h 1.422646 c 0.0164,-0.0902 0.0287,-0.20499 0.0287,-0.31158 z m -1.123356,-0.54528 c 0.196792,0 0.295188,0.14349 0.327987,0.36488 h -0.660074 c 0.0328,-0.22139 0.131194,-0.36488 0.332087,-0.36488 z"
         style="text-align:end;text-anchor:end;stroke-width:0.35277775"
         id="path304" />
      <path
         d="m 21.03613,278.16283 c -0.233691,0 -0.496081,0.0697 -0.742072,0.19679 -0.192692,-0.11479 -0.430483,-0.18039 -0.721572,-0.18039 v 2.27131 h 0.77897 v -1.57024 c 0.114796,-0.0697 0.225491,-0.11069 0.364886,-0.11069 0.245991,0 0.364886,0.11069 0.364886,0.36078 v 1.32015 h 0.77897 v -1.38165 c 0,-0.63547 -0.303388,-0.90606 -0.824068,-0.90606 z"
         style="text-align:end;text-anchor:end;stroke-width:0.35277775"
         id="path306" />
      <path
         d="m 24.184103,278.8598 v -0.56578 c -0.209092,-0.0779 -0.496081,-0.13119 -0.713372,-0.13119 -0.746171,0 -1.242252,0.46328 -1.242252,1.16435 0,0.69698 0.496081,1.16436 1.242252,1.16436 0.274689,0 0.573978,-0.0492 0.754371,-0.123 v -0.56577 c -0.168094,0.0492 -0.368986,0.082 -0.500181,0.082 -0.418184,0 -0.692873,-0.22549 -0.692873,-0.55758 0,-0.33618 0.270589,-0.55757 0.680574,-0.55757 0.143494,0 0.336187,0.0369 0.471481,0.0902 z"
         style="text-align:end;text-anchor:end;stroke-width:0.35277775"
         id="path308" />
      <path
         d="m 25.018807,277.95374 c 0.25829,0 0.446883,-0.1845 0.446883,-0.44279 0,-0.25829 -0.188593,-0.44278 -0.446883,-0.44278 -0.25829,0 -0.442783,0.18449 -0.442783,0.44278 0,0.25829 0.184493,0.44279 0.442783,0.44279 z m 0.385385,0.25009 h -0.77897 v 2.24671 h 0.77897 z"
         style="text-align:end;text-anchor:end;stroke-width:0.35277775"
         id="path310" />
      <path
         d="m 27.911436,280.47514 v -1.46774 c 0,-0.53298 -0.377185,-0.84457 -1.016761,-0.84457 -0.352586,0 -0.701073,0.0533 -0.938863,0.13939 v 0.56578 c 0.25009,-0.0615 0.549378,-0.0984 0.77897,-0.0984 0.25009,0 0.397684,0.11069 0.397684,0.30338 v 0.0533 c -0.151694,-0.0574 -0.303388,-0.082 -0.434583,-0.082 -0.590377,0 -0.918365,0.25829 -0.918365,0.72158 0,0.46738 0.286989,0.72567 0.79537,0.72567 0.24599,0 0.487881,-0.0574 0.688773,-0.15989 0.184493,0.0902 0.414084,0.14349 0.647775,0.14349 z m -1.328349,-0.72567 c 0,-0.1394 0.110696,-0.20909 0.315688,-0.20909 0.0697,0 0.147595,0.0164 0.233691,0.0492 v 0.30749 c -0.0779,0.0287 -0.155794,0.0451 -0.233691,0.0451 -0.204992,0 -0.315688,-0.0615 -0.315688,-0.19269 z"
         style="text-align:end;text-anchor:end;stroke-width:0.35277775"
         id="path312" />
    </g>
  </g>
</svg>
